# xmcd CD database file generated by Grip 3.0.0
# 
# Track frame offsets:
#       150
#       21527
#       39282
#       54605
#       80995
#       108202
#       134745
#       155885
#       179462
#       208515
# 
# Disc length: 2997 seconds
# 
# Revision: 1
# Processed by: cddbd v1.4PL0 Copyright (c) Steve Scherf et al.
# Submitted via: Grip 3.0.0
# 
DISCID=930bb30a
DTITLE=Stephen Fearing - Blue Line
DYEAR=1991
DGENRE=Folk
TTITLE0=The Bells Of Morning
TTITLE1=Our Father And The Big Wheel Of Fortune
TTITLE2=Sarah's Song
TTITLE3=Race Of Fractions
TTITLE4=Little Child Eyes
TTITLE5=Blind Horses
TTITLE6=Blue Line
TTITLE7=Born In A Story
TTITLE8=Turn Out The Lights
TTITLE9=Jesse Meets His Future Wife Zee Mimms
EXTD=
EXTT0=
EXTT1=
EXTT2=
EXTT3=
EXTT4=
EXTT5=
EXTT6=
EXTT7=
EXTT8=
EXTT9=
PLAYORDER=
